<?xml version="1.0" standalone="no"?>
<!DOCTYPE svg PUBLIC "-//W3C//DTD SVG 20010904//EN"
 "http://www.w3.org/TR/2001/REC-SVG-20010904/DTD/svg10.dtd">
<svg version="1.0" xmlns="http://www.w3.org/2000/svg"
 width="260.000000pt" height="260.000000pt" viewBox="0 0 260.000000 260.000000"
 preserveAspectRatio="xMidYMid meet">
<metadata>
Created by potrace 1.11, written by Peter Selinger 2001-2013
</metadata>
<g transform="translate(0.000000,260.000000) scale(0.100000,-0.100000)"
fill="#000000" stroke="none">
<path d="M0 2491 l0 -109 78 5 c42 3 81 9 85 13 5 4 29 5 53 2 27 -3 55 0 69
8 18 10 61 12 167 8 128 -5 146 -4 166 12 19 16 20 19 6 31 -14 11 -13 14 8
22 21 8 22 9 5 19 -17 9 -16 11 9 25 16 8 49 14 74 13 25 -1 47 -1 50 0 13 6
58 12 93 13 26 1 37 6 37 16 0 11 3 11 13 -3 8 -11 20 -16 28 -14 18 7 51 -10
44 -23 -4 -5 1 -9 10 -9 11 0 15 5 11 15 -4 12 0 14 18 9 14 -3 34 1 48 10 12
8 42 18 65 22 35 5 44 3 49 -11 6 -15 16 -16 78 -11 39 4 85 11 102 17 23 7
40 5 68 -6 30 -13 41 -13 52 -4 21 17 99 18 99 1 0 -10 22 -15 80 -18 184 -10
214 -12 302 -19 75 -6 90 -10 86 -23 -5 -13 3 -14 55 -8 40 5 63 3 67 -4 4 -6
26 -10 49 -9 91 5 217 -1 211 -11 -4 -6 8 -10 30 -10 22 0 34 -4 30 -10 -8
-13 -252 -13 -260 0 -10 16 -65 12 -65 -5 0 -10 10 -15 32 -15 44 0 24 -19
-28 -26 -21 -3 -53 -12 -71 -20 -17 -8 -36 -14 -41 -14 -22 0 -22 -21 0 -30
23 -9 23 -9 2 -15 -20 -6 -21 -9 -7 -36 8 -16 20 -30 26 -30 61 -6 84 -11 105
-25 17 -11 27 -13 35 -5 6 6 29 11 51 11 38 -1 40 -2 22 -15 -19 -15 -19 -15
2 -15 13 0 25 7 28 15 5 11 21 15 68 14 33 -1 53 -3 44 -6 -33 -8 -18 -23 23
-23 32 0 40 3 35 15 -4 12 5 15 49 15 l55 0 0 180 0 180 -1300 0 -1300 0 0
-109z"/>
<path d="M1120 2540 c-9 -6 -10 -10 -3 -10 6 0 15 5 18 10 8 12 4 12 -15 0z"/>
<path d="M902 2455 c-13 -7 -29 -18 -35 -24 -17 -17 -27 -13 -27 10 0 34 -42
20 -61 -21 -17 -35 -16 -55 2 -45 13 9 39 -9 31 -21 -4 -6 -27 -21 -52 -33
-25 -12 -67 -37 -94 -56 -27 -20 -52 -32 -55 -29 -3 4 0 9 7 11 6 3 12 9 12
14 0 17 -25 9 -47 -15 -21 -21 -52 -92 -56 -126 -2 -12 10 -15 58 -15 l60 0
-3 -37 c-2 -24 1 -38 8 -38 6 0 8 -5 4 -11 -5 -8 -9 -8 -14 1 -10 16 -91 -57
-88 -78 2 -9 -5 -18 -14 -20 -14 -3 -16 1 -11 14 5 12 3 15 -6 9 -19 -11 -63
-113 -70 -159 -5 -35 -10 -40 -49 -51 -62 -19 -110 -60 -140 -121 l-26 -54
-118 0 -118 0 0 -111 0 -111 22 14 c18 10 45 12 113 8 50 -4 98 -10 107 -14
15 -7 18 -3 18 27 0 53 16 53 42 0 28 -56 55 -73 33 -20 -8 18 -12 42 -10 53
13 65 17 74 25 69 6 -3 10 -21 10 -38 0 -48 24 -77 65 -77 28 0 37 -6 50 -30
11 -21 23 -30 40 -30 29 0 30 9 10 67 -14 40 -13 45 6 78 14 24 17 35 8 35 -8
0 -7 6 4 18 10 10 17 29 17 41 0 14 7 25 20 28 12 3 20 14 20 25 0 14 -5 18
-16 14 -8 -3 -12 -2 -9 4 3 6 -2 13 -12 17 -29 11 -43 30 -36 48 5 15 3 16
-14 7 -24 -13 -50 -1 -31 15 15 13 98 11 119 -3 8 -5 22 -7 32 -6 9 2 17 -2
17 -7 0 -18 56 -12 74 8 10 11 25 17 37 14 10 -3 26 0 34 7 8 7 25 10 40 6 28
-7 29 -7 16 27 -8 21 -7 23 14 19 14 -2 31 4 43 16 15 15 31 20 57 17 27 -2
35 0 31 10 -3 9 0 12 10 8 14 -5 18 4 14 44 -1 22 28 45 53 42 33 -4 57 2 57
16 0 8 -4 15 -10 15 -5 0 -10 -3 -10 -8 0 -4 -27 -9 -60 -10 -38 -2 -60 1 -60
8 0 10 56 27 73 22 5 -1 6 2 2 8 -3 5 -1 10 4 10 16 0 13 16 -4 34 -20 19 -19
23 5 29 11 3 20 11 20 17 0 7 -6 10 -14 7 -8 -3 -17 1 -20 9 -4 10 4 18 22 25
15 6 35 17 44 26 14 12 21 13 32 4 7 -6 20 -9 28 -6 9 4 28 -7 47 -25 17 -17
31 -32 31 -33 0 -1 -15 -3 -33 -4 -17 -2 -37 -10 -44 -19 -14 -19 -6 -51 10
-35 6 6 21 4 44 -7 30 -14 35 -14 43 -2 8 13 10 12 10 -2 0 -9 -8 -22 -17 -28
-19 -12 -22 -12 50 6 22 5 22 5 2 -12 -19 -16 -19 -16 14 -10 18 3 41 6 50 6
13 0 13 2 2 9 -10 7 -10 10 -1 16 7 4 16 2 20 -5 4 -7 13 -9 19 -6 6 4 11 3
11 -2 0 -5 11 -7 25 -4 17 3 25 11 25 24 0 17 -6 19 -37 16 -26 -2 -37 1 -36
9 3 14 -32 27 -47 18 -5 -3 -10 -2 -10 3 0 16 31 23 46 11 10 -8 14 -8 14 0 0
6 -4 11 -10 11 -5 0 -10 5 -10 10 0 15 40 12 40 -2 0 -7 5 -5 11 6 9 14 8 20
-2 27 -11 7 -11 9 2 9 25 0 32 -30 13 -51 -15 -17 -15 -19 -1 -25 23 -8 40 5
34 27 -3 11 -1 19 4 19 5 0 9 -5 9 -11 0 -8 7 -7 23 2 27 17 93 13 79 -4 -14
-17 -21 -67 -11 -73 15 -9 10 -24 -7 -24 -8 0 -12 5 -9 10 11 18 -69 10 -92
-9 -37 -31 -30 -55 22 -69 25 -7 59 -12 76 -12 39 0 69 -16 70 -38 0 -12 4
-10 11 8 11 24 12 24 15 4 5 -25 43 -41 43 -17 0 8 -4 12 -9 8 -5 -3 -12 -1
-15 4 -15 23 152 14 179 -10 5 -5 17 -9 26 -9 9 0 31 -16 48 -35 28 -32 35
-35 33 -14 -1 4 8 5 18 2 11 -3 20 -11 20 -19 0 -7 9 -18 20 -24 11 -6 20 -18
20 -26 0 -8 -4 -12 -10 -9 -16 10 -11 -8 9 -34 33 -43 47 -22 58 85 12 116 10
189 -7 227 -16 33 -30 35 -30 5 -1 -22 -2 -21 -25 7 -14 17 -25 34 -25 39 0 5
-9 18 -20 30 -11 12 -41 45 -67 74 -26 30 -60 60 -75 68 -16 8 -44 30 -64 49
-20 19 -40 35 -45 35 -5 0 -9 7 -9 15 0 15 -94 75 -119 75 -8 0 -23 8 -33 17
-16 14 -41 17 -139 17 -67 1 -123 -2 -126 -7 -2 -4 -9 -5 -14 -1 -13 7 -99
-15 -99 -26 0 -14 -31 -20 -48 -10 -15 9 -14 10 6 16 38 11 25 27 -15 19 -87
-16 -203 -107 -203 -159 0 -14 -4 -27 -9 -30 -5 -3 -12 -22 -15 -41 -5 -26
-12 -35 -26 -35 -11 0 -20 -7 -20 -15 0 -17 31 -20 46 -5 14 14 57 -18 50 -37
-4 -10 -1 -13 13 -8 15 4 18 0 16 -25 -1 -16 -2 -44 -3 -61 -1 -20 -6 -29 -14
-26 -7 2 -12 10 -10 17 1 6 -6 14 -17 17 -12 3 -17 11 -14 19 6 15 -1 17 -35
8 -14 -4 -21 -12 -18 -21 4 -10 1 -11 -13 -4 -10 6 -21 7 -25 4 -3 -4 -26 -7
-49 -8 -45 -2 -91 -25 -101 -51 -4 -9 2 -14 17 -14 21 -1 20 -2 -5 -18 -16 -9
-28 -20 -28 -24 0 -5 -5 -8 -11 -8 -6 0 -19 -10 -30 -22 -16 -20 -20 -21 -29
-8 -6 9 -13 11 -17 5 -5 -5 -28 -27 -52 -49 -39 -34 -45 -37 -53 -22 -7 13 -5
23 8 37 9 10 12 19 6 19 -6 0 -13 -6 -15 -12 -3 -7 -6 -4 -6 8 -1 26 43 68 92
89 37 15 38 15 27 -5 -22 -40 23 -19 90 43 8 8 30 22 48 31 18 9 30 21 27 26
-4 6 0 10 7 10 20 0 37 20 31 36 -3 8 -11 14 -18 14 -7 0 -23 15 -34 34 -20
32 -20 35 -5 72 30 71 113 164 146 164 17 0 19 3 9 9 -10 7 -4 15 28 36 22 15
41 32 41 36 0 12 -23 12 -36 0 -5 -5 -26 -12 -46 -15 -47 -8 -52 10 -8 25 17
6 30 17 30 25 0 17 -7 16 -38 -1z m-32 -65 c0 -5 -7 -10 -16 -10 -8 0 -12 5
-9 10 3 6 10 10 16 10 5 0 9 -4 9 -10z m363 -86 c-20 -8 -33 -21 -33 -32 0
-26 -20 -42 -52 -42 -31 0 -36 11 -13 30 8 7 12 16 9 21 -3 5 5 9 18 9 13 0
32 7 42 15 11 8 29 15 40 14 16 0 14 -4 -11 -15z m191 -153 c27 -18 27 -19 7
-26 -14 -4 -21 -15 -21 -31 0 -13 -5 -24 -11 -24 -5 0 -7 5 -4 10 4 6 3 16 -2
23 -12 15 -15 67 -5 67 4 0 20 -9 36 -19z m-193 -22 c-23 -9 -34 0 -21 16 9
11 15 12 25 2 11 -10 10 -13 -4 -18z m134 0 c10 -15 -1 -23 -20 -15 -9 3 -13
10 -10 16 8 13 22 13 30 -1z m-85 -9 c0 -5 -2 -10 -4 -10 -3 0 -8 5 -11 10 -3
6 -1 10 4 10 6 0 11 -4 11 -10z m10 -54 c0 -3 -4 -8 -10 -11 -5 -3 -10 -1 -10
4 0 6 5 11 10 11 6 0 10 -2 10 -4z m414 -92 c11 -30 6 -37 -14 -19 -11 10 -20
22 -20 27 0 15 28 9 34 -8z m36 6 c0 -5 -4 -10 -10 -10 -5 0 -10 5 -10 10 0 6
5 10 10 10 6 0 10 -4 10 -10z m-1128 -42 c-7 -7 -12 -8 -12 -2 0 14 12 26 19
19 2 -3 -1 -11 -7 -17z m187 -45 c-41 -46 -43 -48 -61 -49 -29 -3 -21 13 25
45 53 38 68 39 36 4z m-153 -88 c-5 -13 -2 -13 20 1 13 9 27 14 31 10 3 -3 2
-6 -4 -6 -6 0 -26 -13 -44 -30 -57 -50 -92 -53 -71 -5 16 34 81 62 68 30z"/>
<path d="M2298 2463 c7 -3 16 -2 19 1 4 3 -2 6 -13 5 -11 0 -14 -3 -6 -6z"/>
<path d="M714 2435 c-16 -13 -24 -24 -17 -25 6 0 15 5 18 11 4 6 16 14 28 18
11 4 16 10 11 14 -6 3 -23 -5 -40 -18z"/>
<path d="M2106 2451 c-4 -7 -5 -15 -2 -18 9 -9 19 4 14 18 -4 11 -6 11 -12 0z"/>
<path d="M613 2386 c-13 -6 -23 -17 -23 -24 0 -19 20 -10 38 16 8 12 13 21 11
21 -2 -1 -14 -6 -26 -13z"/>
<path d="M705 2350 c3 -5 8 -10 11 -10 2 0 4 5 4 10 0 6 -5 10 -11 10 -5 0 -7
-4 -4 -10z"/>
<path d="M651 2309 c-12 -12 -20 -23 -17 -27 3 -3 18 7 32 21 31 32 18 37 -15
6z"/>
<path d="M920 2069 c0 -5 5 -7 10 -4 6 3 10 8 10 11 0 2 -4 4 -10 4 -5 0 -10
-5 -10 -11z"/>
<path d="M13 2063 c9 -2 23 -2 30 0 6 3 -1 5 -18 5 -17 0 -22 -2 -12 -5z"/>
<path d="M1110 2060 c20 -13 43 -13 35 0 -3 6 -16 10 -28 10 -18 0 -19 -2 -7
-10z"/>
<path d="M855 2030 c4 -6 11 -8 16 -5 14 9 11 15 -7 15 -8 0 -12 -5 -9 -10z"/>
<path d="M985 2030 c3 -5 8 -10 11 -10 2 0 4 5 4 10 0 6 -5 10 -11 10 -5 0 -7
-4 -4 -10z"/>
<path d="M1155 2030 c3 -5 8 -10 11 -10 2 0 4 5 4 10 0 6 -5 10 -11 10 -5 0
-7 -4 -4 -10z"/>
<path d="M1565 2030 c3 -5 8 -10 11 -10 2 0 4 5 4 10 0 6 -5 10 -11 10 -5 0
-7 -4 -4 -10z"/>
<path d="M1150 1960 c0 -13 28 -25 38 -16 3 4 0 11 -8 16 -20 13 -30 12 -30 0z"/>
<path d="M1098 1873 c7 -3 16 -2 19 1 4 3 -2 6 -13 5 -11 0 -14 -3 -6 -6z"/>
<path d="M1610 1835 c0 -8 -5 -15 -11 -15 -8 0 -8 -4 1 -14 6 -8 18 -12 26 -9
19 7 18 39 -1 47 -9 3 -15 0 -15 -9z"/>
<path d="M1540 1800 c0 -5 6 -10 14 -10 8 0 18 5 21 10 3 6 -3 10 -14 10 -12
0 -21 -4 -21 -10z"/>
<path d="M1163 1675 c-20 -16 -63 -20 -63 -6 0 14 -59 -4 -125 -38 -67 -34
-93 -38 -101 -16 -4 8 -11 15 -16 15 -7 0 -7 -4 0 -12 5 -7 12 -28 14 -46 4
-29 2 -32 -16 -26 -12 4 -29 13 -38 21 -10 9 -24 13 -33 10 -18 -8 -20 -27 -2
-27 7 0 20 -9 30 -20 9 -11 23 -20 30 -20 8 0 19 -11 25 -25 14 -30 28 -31
122 -9 52 12 78 13 102 5 18 -5 59 -15 91 -21 31 -6 57 -15 57 -20 0 -4 10
-11 23 -15 14 -5 -26 -11 -108 -14 -71 -4 -139 -12 -150 -18 -15 -9 -5 -11 53
-11 44 1 78 -4 87 -12 20 -16 150 -9 185 11 38 21 94 39 100 32 3 -3 -1 -8 -7
-10 -11 -4 -19 -33 -9 -33 13 0 75 31 84 43 7 7 13 35 14 61 1 44 4 49 35 64
31 15 35 15 59 -4 22 -17 26 -28 29 -89 4 -85 11 -105 37 -105 11 0 16 -4 12
-11 -4 -6 1 -9 13 -7 11 2 26 -2 34 -8 46 -35 229 -65 229 -37 0 17 -67 61
-112 74 -61 16 -44 28 37 25 53 -2 81 -8 93 -20 27 -24 31 -20 28 20 -5 52 3
77 20 63 10 -8 16 -3 29 26 18 44 18 47 4 78 -12 26 -49 38 -171 58 -43 6 -78
16 -78 20 0 5 -5 9 -11 9 -5 0 -8 -4 -5 -9 20 -32 -233 -34 -253 -3 -12 19
-51 24 -57 8 -7 -17 -34 -10 -34 9 0 7 7 15 15 19 31 12 13 21 -42 22 -32 0
-99 3 -150 7 -70 4 -96 2 -110 -8z m106 -158 c12 -15 5 -27 -16 -27 -7 0 -13
9 -13 20 0 23 13 26 29 7z"/>
<path d="M2385 1683 c-27 -2 -78 -5 -112 -9 -57 -5 -64 -8 -79 -37 -9 -18 -18
-62 -21 -99 -4 -47 -10 -68 -19 -68 -7 0 -16 -17 -20 -37 -4 -21 -18 -60 -30
-88 -13 -27 -24 -60 -24 -73 0 -12 -9 -48 -19 -80 -10 -31 -22 -87 -26 -124
-4 -45 -14 -79 -30 -101 -12 -19 -28 -52 -35 -73 -20 -63 -49 -103 -145 -204
-50 -52 -100 -111 -113 -131 -12 -20 -54 -62 -94 -93 l-71 -57 -24 25 c-13 14
-31 26 -39 26 -8 0 -17 6 -20 14 -7 18 -72 30 -103 18 -17 -6 -42 -2 -88 15
-52 19 -67 21 -83 11 -21 -14 -109 4 -145 28 -11 8 -29 14 -40 14 -12 0 -34
13 -50 30 -15 16 -32 27 -36 24 -9 -5 -44 13 -67 34 -7 6 -16 12 -20 12 -4 0
-16 19 -27 43 -11 23 -24 45 -28 48 -5 4 -6 16 -2 28 5 16 14 21 42 21 27 0
34 3 29 15 -3 8 -1 15 4 15 16 0 80 -70 80 -86 0 -20 30 -30 41 -13 14 23 11
39 -8 32 -12 -5 -15 -2 -10 10 3 9 2 17 -4 17 -5 0 -7 10 -4 23 8 29 -19 57
-37 39 -7 -7 -19 -12 -27 -12 -11 0 -8 7 10 24 21 20 26 34 28 81 2 59 20 117
48 147 8 10 19 15 23 13 7 -4 6 -81 -1 -95 -3 -8 -7 -24 -8 -42 -1 -11 -8 -15
-24 -12 -20 4 -21 4 -2 -5 33 -16 64 -12 75 8 14 28 12 36 -5 21 -25 -21 -30
-3 -10 35 16 28 23 33 42 29 13 -4 29 -2 36 4 6 5 24 9 40 7 15 -2 27 1 27 7
0 6 8 8 19 5 11 -2 31 5 47 19 37 30 42 30 36 -3 -5 -27 -4 -27 14 -12 38 33
85 -15 56 -57 -15 -22 -83 -67 -80 -53 2 10 -11 15 -47 19 -32 3 -49 9 -48 17
2 9 -4 10 -23 3 -14 -6 -40 -10 -57 -10 -20 0 -27 -3 -19 -8 10 -7 7 -14 -11
-33 -14 -13 -33 -49 -43 -79 -11 -30 -22 -56 -26 -58 -17 -8 -7 -24 12 -19 13
3 20 0 20 -10 0 -12 3 -12 21 0 11 8 29 13 39 10 12 -3 28 5 44 20 14 14 28
22 31 18 4 -3 6 -1 5 4 -6 29 1 37 26 31 36 -9 134 -84 134 -101 0 -3 -16 -5
-36 -5 -31 0 -35 -3 -29 -17 5 -10 8 -26 9 -35 0 -12 8 -18 25 -18 13 0 30 -8
37 -17 26 -36 223 -17 238 23 3 7 -2 18 -12 23 -15 9 -15 11 1 29 18 19 18 21
0 31 -14 7 -5 9 36 6 50 -3 83 -18 92 -43 2 -5 14 -12 25 -16 17 -5 23 -2 28
19 4 14 11 25 17 25 6 0 7 4 4 10 -3 6 -1 10 4 10 6 0 11 7 11 16 0 8 5 12 10
9 6 -3 10 3 10 15 l0 21 -22 -21 c-30 -28 -35 -26 -42 20 -4 24 -12 40 -20 40
-8 0 -16 6 -19 14 -5 13 -12 13 -47 -1 -41 -16 -63 -12 -42 9 6 6 9 29 5 57
-5 41 -3 47 13 48 48 3 64 8 64 20 0 26 28 12 41 -19 7 -18 29 -47 48 -64 l36
-32 29 29 c35 34 46 36 46 9 0 -25 12 -26 27 -1 10 15 9 20 -2 25 -8 3 -17 21
-21 40 -3 20 -10 36 -14 36 -4 0 -15 16 -26 36 -24 46 -113 133 -136 134 -22
0 -22 -7 -3 -52 11 -28 12 -39 2 -50 -28 -36 -120 -28 -160 13 -22 23 -35 24
-58 3 -17 -15 -21 -15 -59 0 -22 9 -51 16 -63 16 -26 0 -47 17 -47 38 0 8 14
27 31 43 27 25 29 30 14 35 -11 5 -53 -12 -114 -43 -53 -28 -120 -56 -149 -62
-50 -10 -56 -10 -84 13 -27 21 -35 22 -67 14 -31 -9 -104 -58 -85 -58 3 0 -5
-9 -20 -21 -37 -29 -33 -41 14 -34 31 5 40 3 40 -8 0 -17 -21 -27 -58 -27 -30
0 -54 -12 -53 -26 1 -5 -3 -9 -9 -9 -5 0 -9 -4 -7 -8 3 -12 -56 -36 -68 -27
-5 4 -19 9 -30 12 -17 4 -21 0 -20 -21 0 -21 -4 -26 -23 -24 -16 2 -22 -2 -22
-17 0 -13 -7 -20 -20 -20 -11 0 -20 -3 -21 -7 0 -5 -1 -41 -1 -80 -1 -55 -4
-73 -14 -73 -8 0 -14 -3 -14 -6 0 -21 86 -127 177 -217 159 -157 226 -206 429
-316 69 -38 121 -72 115 -75 -5 -4 -36 -3 -68 2 -32 5 -82 7 -110 4 -61 -5
-63 -10 -34 -87 l19 -50 116 -3 c124 -3 122 -4 117 49 -1 9 8 20 19 25 21 9
21 9 -4 39 -17 20 -22 33 -15 41 6 8 4 16 -8 25 -11 9 -14 10 -9 2 4 -7 2 -13
-4 -13 -12 0 -41 32 -38 41 2 3 -3 13 -11 22 -7 10 -10 17 -6 17 4 0 0 11 -9
25 -15 23 -15 25 1 25 10 0 33 -9 51 -20 27 -17 37 -18 48 -9 11 9 18 8 32 -5
25 -22 32 -20 32 10 0 26 53 84 77 84 18 0 17 -80 -2 -116 -8 -16 -15 -41 -15
-56 0 -27 -17 -36 -54 -29 -15 3 -66 -21 -66 -30 0 -5 4 -9 9 -9 5 0 22 -5 37
-10 l27 -11 -25 -27 c-14 -15 -31 -37 -37 -49 l-12 -23 646 0 645 0 0 701 0
701 -47 -7 c-103 -17 -270 -8 -316 16 -30 17 -15 41 38 59 98 35 131 41 225
43 l95 2 3 88 3 88 -83 -3 c-46 -2 -105 -4 -133 -5z m-995 -637 c0 -3 -4 -8
-10 -11 -5 -3 -10 -1 -10 4 0 6 5 11 10 11 6 0 10 -2 10 -4z m-490 -27 c0 -5
-5 -7 -11 -4 -6 4 -10 1 -8 -6 5 -44 -1 -59 -27 -59 -15 0 -23 -4 -19 -10 4
-6 15 -8 25 -5 10 3 21 1 25 -5 3 -5 1 -10 -5 -10 -8 0 -8 -6 0 -20 16 -29 -5
-26 -37 6 -19 19 -27 37 -27 65 -1 22 3 38 9 36 5 -2 21 2 35 10 30 16 40 16
40 2z m481 -19 c-24 -21 -41 -26 -41 -12 0 15 24 32 45 32 19 -1 19 -1 -4 -20z
m59 16 c0 -11 -19 -15 -25 -6 -3 5 1 10 9 10 9 0 16 -2 16 -4z m110 -29 c0
-23 -5 -34 -15 -34 -10 0 -12 4 -5 12 5 7 7 15 4 18 -7 7 2 37 11 37 3 0 5
-15 5 -33z m-754 -3 c-4 -9 -9 -15 -11 -12 -3 3 -3 13 1 22 4 9 9 15 11 12 3
-3 3 -13 -1 -22z m703 -18 c0 -12 -3 -16 -5 -9 -3 7 -12 9 -20 6 -9 -3 -12 0
-9 9 9 22 35 18 34 -6z m-849 -46 c0 -5 -4 -10 -10 -10 -5 0 -10 5 -10 10 0 6
5 10 10 10 6 0 10 -4 10 -10z m632 -16 c14 -14 20 -14 33 -4 13 10 19 10 33
-2 11 -10 29 -14 49 -11 24 4 34 1 39 -11 5 -12 10 -13 26 -5 13 7 23 7 32 0
8 -6 20 -9 29 -5 8 3 18 1 21 -4 3 -6 15 -8 26 -5 22 6 27 -9 8 -24 -29 -21
-152 -21 -201 1 -17 8 -48 17 -68 20 -47 8 -72 27 -63 49 8 21 13 21 36 1z
m583 -628 c92 -94 155 -193 155 -244 l0 -26 -28 27 c-19 18 -31 24 -38 17 -7
-7 -16 -4 -29 10 -10 11 -26 20 -36 20 -10 0 -29 21 -48 55 -32 56 -50 63 -52
22 -1 -18 -2 -16 -10 7 -5 18 -5 34 1 42 7 7 6 19 -2 35 -24 45 -81 124 -117
163 l-36 38 75 -37 c58 -29 95 -57 165 -129z m-166 -38 c0 -13 -3 -17 -6 -10
-2 6 -11 12 -18 12 -8 0 -17 5 -20 10 -4 6 5 10 19 10 21 0 26 -5 25 -22z
m-62 6 c-3 -3 -12 -4 -19 -1 -8 3 -5 6 6 6 11 1 17 -2 13 -5z m-136 -21 c13
-16 12 -17 -3 -4 -17 13 -22 21 -14 21 2 0 10 -8 17 -17z m-231 -144 c0 -6 -4
-7 -10 -4 -5 3 -10 11 -10 16 0 6 5 7 10 4 6 -3 10 -11 10 -16z m-52 -1 c14
-14 16 -68 3 -68 -12 0 -20 13 -31 50 -9 32 5 41 28 18z"/>
<path d="M695 1550 c3 -5 8 -10 11 -10 2 0 4 5 4 10 0 6 -5 10 -11 10 -5 0 -7
-4 -4 -10z"/>
<path d="M623 1536 c-11 -20 -6 -56 8 -56 5 0 9 -7 9 -15 0 -8 5 -15 10 -15 6
0 10 -9 10 -20 0 -13 8 -21 25 -25 14 -3 36 -7 50 -10 16 -4 24 -1 23 6 -4 15
39 38 72 39 l25 1 -23 10 c-13 5 -20 13 -17 19 3 5 -1 20 -9 32 -9 12 -16 17
-16 10 0 -10 -5 -10 -21 -1 -18 9 -24 8 -31 -5 -11 -20 -29 -21 -22 -1 4 10 0
15 -16 15 -11 0 -18 -4 -15 -10 3 -5 2 -10 -4 -10 -5 0 -17 -3 -27 -7 -13 -5
-16 -2 -12 8 3 8 2 23 -2 34 -6 18 -7 18 -17 1z"/>
<path d="M1163 1423 c9 -2 23 -2 30 0 6 3 -1 5 -18 5 -16 0 -22 -2 -12 -5z"/>
<path d="M698 1373 c-21 -5 -21 -8 -8 -34 6 -10 17 -19 25 -19 15 0 30 35 20
50 -6 10 -9 11 -37 3z"/>
<path d="M758 1363 c7 -3 16 -2 19 1 4 3 -2 6 -13 5 -11 0 -14 -3 -6 -6z"/>
<path d="M880 1300 c9 -17 9 -21 0 -15 -7 4 -16 2 -20 -6 -7 -10 -11 -10 -23
0 -12 9 -17 9 -23 0 -4 -7 -2 -15 4 -17 7 -2 12 -14 12 -27 0 -31 13 -38 44
-24 24 11 31 22 27 43 -1 4 5 19 14 32 13 20 13 24 1 24 -8 0 -22 3 -31 7 -15
5 -16 3 -5 -17z"/>
<path d="M646 1302 c-8 -14 21 -42 42 -42 16 1 16 1 0 11 -10 5 -21 17 -26 26
-6 10 -12 12 -16 5z"/>
<path d="M825 1300 c3 -5 10 -10 16 -10 5 0 9 5 9 10 0 6 -7 10 -16 10 -8 0
-12 -4 -9 -10z"/>
<path d="M267 1262 c-16 -7 -72 -20 -125 -29 -53 -8 -107 -17 -120 -19 l-23
-5 1 -239 c1 -197 4 -240 15 -240 8 0 17 5 20 10 3 6 16 10 28 10 17 0 14 -5
-18 -23 l-40 -23 -3 -352 -2 -352 411 0 411 0 -33 57 c-98 172 -288 557 -343
697 -59 147 -71 228 -49 316 18 75 18 75 35 64 7 -5 34 -9 61 -9 l47 0 0 43 0
43 -28 -21 c-15 -11 -43 -23 -62 -26 -32 -5 -40 -1 -95 53 -59 58 -61 59 -88
45z m-22 -445 c-9 -18 -42 -49 -71 -70 -54 -36 -54 -36 -54 -12 0 15 10 31 26
42 14 10 44 32 67 49 23 17 44 29 46 28 2 -2 -4 -19 -14 -37z m-135 -136 c0
-20 -25 -51 -41 -51 -16 0 -10 23 13 47 26 28 28 28 28 4z"/>
<path d="M512 1265 c-25 -18 -29 -35 -8 -35 17 0 39 26 34 40 -2 6 -12 4 -26
-5z"/>
<path d="M620 1271 c0 -6 5 -13 10 -16 6 -3 10 1 10 9 0 9 -4 16 -10 16 -5 0
-10 -4 -10 -9z"/>
<path d="M1180 1000 c-13 -8 -12 -10 3 -10 9 0 17 5 17 10 0 12 -1 12 -20 0z"/>
<path d="M1600 964 c0 -8 5 -12 10 -9 6 3 10 10 10 16 0 5 -4 9 -10 9 -5 0
-10 -7 -10 -16z"/>
<path d="M1210 770 c0 -5 5 -10 11 -10 5 0 7 5 4 10 -3 6 -8 10 -11 10 -2 0
-4 -4 -4 -10z"/>
<path d="M1287 219 c7 -7 15 -10 18 -7 3 3 -2 9 -12 12 -14 6 -15 5 -6 -5z"/>
</g>
</svg>
